# xmcd
#
# Track frame offsets:
#	150
#	18057
#	31926
#	49897
#	68444
#	89814
#	104678
#	125274
#	145270
#	161613
#	190916
#	210011
#	233129
#	253181
#	271767
#
# Disc length: 3907 seconds
#
# Revision: 1
# Processed by: cddbd v1.5.2PL0 Copyright (c) Steve Scherf et al.
# Submitted via: audiograbber 1.83.01
#
DISCID=c70f410f
DTITLE=Memphis Slim - Six Classic Albums [CD 4)
DYEAR=2016
DGENRE=Blues
TTITLE0=Sunnyland train (from- Memphis Slim - Alone with my friends - 1961)
TTITLE1=Goin' down to the river (from- Memphis Slim - Alone with my friends - 1
TTITLE1=961)
TTITLE2=I just want to make love to you (from- Memphis Slim - Alone with my fri
TTITLE2=ends - 1961)
TTITLE3=I can hear my name a-ringin' (from- Memphis Slim - Alone with my friend
TTITLE3=s - 1961)
TTITLE4=Going back to my plow (from- Memphis Slim - Alone with my friends - 196
TTITLE4=1)
TTITLE5=Blues is troubles (from- Memphis Slim - All kinds of blues - 1962) 
TTITLE6=Grinder man blues (from- Memphis Slim - All kinds of blues - 1962) 
TTITLE7=Three-in-one boogie (from- Memphis Slim - All kinds of blues - 1962) 
TTITLE8=Letter home (from- Memphis Slim - All kinds of blues - 1962) 
TTITLE9=Churnin' man blues (from- Memphis Slim - All kinds of blues - 1962) 
TTITLE10=Two of a kind (from- Memphis Slim - All kinds of blues - 1962) 
TTITLE11=The blacks (from- Memphis Slim - All kinds of blues - 1962) 
TTITLE12=If you see Kay (from- Memphis Slim - All kinds of blues - 1962) 
TTITLE13=Frankie and Johnny Boogie (from- Memphis Slim - All kinds of blues - 1
TTITLE13=962) 
TTITLE14=Mother Earth (from- Memphis Slim - All kinds of blues - 1962) 
EXTD=
EXTT0=
EXTT1=
EXTT2=
EXTT3=
EXTT4=
EXTT5=
EXTT6=
EXTT7=
EXTT8=
EXTT9=
EXTT10=
EXTT11=
EXTT12=
EXTT13=
EXTT14=
PLAYORDER=
